<?xml version="1.0" encoding="utf-8" standalone="no"?>
<!DOCTYPE svg PUBLIC "-//W3C//DTD SVG 1.1//EN"
  "http://www.w3.org/Graphics/SVG/1.1/DTD/svg11.dtd">
<svg xmlns:xlink="http://www.w3.org/1999/xlink" width="576pt" height="576pt" viewBox="0 0 576 576" xmlns="http://www.w3.org/2000/svg" version="1.1">
 <metadata>
  <rdf:RDF xmlns:dc="http://purl.org/dc/elements/1.1/" xmlns:cc="http://creativecommons.org/ns#" xmlns:rdf="http://www.w3.org/1999/02/22-rdf-syntax-ns#">
   <cc:Work>
    <dc:type rdf:resource="http://purl.org/dc/dcmitype/StillImage"/>
    <dc:date>2023-06-17T13:47:26.174128</dc:date>
    <dc:format>image/svg+xml</dc:format>
    <dc:creator>
     <cc:Agent>
      <dc:title>Matplotlib v3.5.1, https://matplotlib.org/</dc:title>
     </cc:Agent>
    </dc:creator>
   </cc:Work>
  </rdf:RDF>
 </metadata>
 <defs>
  <style type="text/css">*{stroke-linejoin: round; stroke-linecap: butt}</style>
 </defs>
 <g id="figure_1">
  <g id="patch_1">
   <path d="M 0 576 
L 576 576 
L 576 0 
L 0 0 
z
" style="fill: #ffffff"/>
  </g>
  <g id="axes_1">
   <g id="patch_2">
    <path d="M 72 504 
L 518.4 504 
L 518.4 69.12 
L 72 69.12 
z
" style="fill: #eaeaf2"/>
   </g>
   <g id="matplotlib.axis_1">
    <g id="xtick_1">
     <g id="line2d_1">
      <path d="M 92.290909 504 
L 92.290909 69.12 
" clip-path="url(#p4e67c234c9)" style="fill: none; stroke: #ffffff; stroke-linecap: round"/>
     </g>
     <g id="text_1">
      <!-- 0.0 -->
      <g style="fill: #262626" transform="translate(84.645909 521.373594)scale(0.11 -0.11)">
       <defs>
        <path id="ArialMT-30" d="M 266 2259 
Q 266 3072 433 3567 
Q 600 4063 929 4331 
Q 1259 4600 1759 4600 
Q 2128 4600 2406 4451 
Q 2684 4303 2865 4023 
Q 3047 3744 3150 3342 
Q 3253 2941 3253 2259 
Q 3253 1453 3087 958 
Q 2922 463 2592 192 
Q 2263 -78 1759 -78 
Q 1097 -78 719 397 
Q 266 969 266 2259 
z
M 844 2259 
Q 844 1131 1108 757 
Q 1372 384 1759 384 
Q 2147 384 2411 759 
Q 2675 1134 2675 2259 
Q 2675 3391 2411 3762 
Q 2147 4134 1753 4134 
Q 1366 4134 1134 3806 
Q 844 3388 844 2259 
z
" transform="scale(0.015625)"/>
        <path id="ArialMT-2e" d="M 581 0 
L 581 641 
L 1222 641 
L 1222 0 
L 581 0 
z
" transform="scale(0.015625)"/>
       </defs>
       <use xlink:href="#ArialMT-30"/>
       <use xlink:href="#ArialMT-2e" x="55.615234"/>
       <use xlink:href="#ArialMT-30" x="83.398438"/>
      </g>
     </g>
    </g>
    <g id="xtick_2">
     <g id="line2d_2">
      <path d="M 173.454545 504 
L 173.454545 69.12 
" clip-path="url(#p4e67c234c9)" style="fill: none; stroke: #ffffff; stroke-linecap: round"/>
     </g>
     <g id="text_2">
      <!-- 0.2 -->
      <g style="fill: #262626" transform="translate(165.809545 521.373594)scale(0.11 -0.11)">
       <defs>
        <path id="ArialMT-32" d="M 3222 541 
L 3222 0 
L 194 0 
Q 188 203 259 391 
Q 375 700 629 1000 
Q 884 1300 1366 1694 
Q 2113 2306 2375 2664 
Q 2638 3022 2638 3341 
Q 2638 3675 2398 3904 
Q 2159 4134 1775 4134 
Q 1369 4134 1125 3890 
Q 881 3647 878 3216 
L 300 3275 
Q 359 3922 746 4261 
Q 1134 4600 1788 4600 
Q 2447 4600 2831 4234 
Q 3216 3869 3216 3328 
Q 3216 3053 3103 2787 
Q 2991 2522 2730 2228 
Q 2469 1934 1863 1422 
Q 1356 997 1212 845 
Q 1069 694 975 541 
L 3222 541 
z
" transform="scale(0.015625)"/>
       </defs>
       <use xlink:href="#ArialMT-30"/>
       <use xlink:href="#ArialMT-2e" x="55.615234"/>
       <use xlink:href="#ArialMT-32" x="83.398438"/>
      </g>
     </g>
    </g>
    <g id="xtick_3">
     <g id="line2d_3">
      <path d="M 254.618182 504 
L 254.618182 69.12 
" clip-path="url(#p4e67c234c9)" style="fill: none; stroke: #ffffff; stroke-linecap: round"/>
     </g>
     <g id="text_3">
      <!-- 0.4 -->
      <g style="fill: #262626" transform="translate(246.973182 521.373594)scale(0.11 -0.11)">
       <defs>
        <path id="ArialMT-34" d="M 2069 0 
L 2069 1097 
L 81 1097 
L 81 1613 
L 2172 4581 
L 2631 4581 
L 2631 1613 
L 3250 1613 
L 3250 1097 
L 2631 1097 
L 2631 0 
L 2069 0 
z
M 2069 1613 
L 2069 3678 
L 634 1613 
L 2069 1613 
z
" transform="scale(0.015625)"/>
       </defs>
       <use xlink:href="#ArialMT-30"/>
       <use xlink:href="#ArialMT-2e" x="55.615234"/>
       <use xlink:href="#ArialMT-34" x="83.398438"/>
      </g>
     </g>
    </g>
    <g id="xtick_4">
     <g id="line2d_4">
      <path d="M 335.781818 504 
L 335.781818 69.12 
" clip-path="url(#p4e67c234c9)" style="fill: none; stroke: #ffffff; stroke-linecap: round"/>
     </g>
     <g id="text_4">
      <!-- 0.6 -->
      <g style="fill: #262626" transform="translate(328.136818 521.373594)scale(0.11 -0.11)">
       <defs>
        <path id="ArialMT-36" d="M 3184 3459 
L 2625 3416 
Q 2550 3747 2413 3897 
Q 2184 4138 1850 4138 
Q 1581 4138 1378 3988 
Q 1113 3794 959 3422 
Q 806 3050 800 2363 
Q 1003 2672 1297 2822 
Q 1591 2972 1913 2972 
Q 2475 2972 2870 2558 
Q 3266 2144 3266 1488 
Q 3266 1056 3080 686 
Q 2894 316 2569 119 
Q 2244 -78 1831 -78 
Q 1128 -78 684 439 
Q 241 956 241 2144 
Q 241 3472 731 4075 
Q 1159 4600 1884 4600 
Q 2425 4600 2770 4297 
Q 3116 3994 3184 3459 
z
M 888 1484 
Q 888 1194 1011 928 
Q 1134 663 1356 523 
Q 1578 384 1822 384 
Q 2178 384 2434 671 
Q 2691 959 2691 1453 
Q 2691 1928 2437 2201 
Q 2184 2475 1800 2475 
Q 1419 2475 1153 2201 
Q 888 1928 888 1484 
z
" transform="scale(0.015625)"/>
       </defs>
       <use xlink:href="#ArialMT-30"/>
       <use xlink:href="#ArialMT-2e" x="55.615234"/>
       <use xlink:href="#ArialMT-36" x="83.398438"/>
      </g>
     </g>
    </g>
    <g id="xtick_5">
     <g id="line2d_5">
      <path d="M 416.945455 504 
L 416.945455 69.12 
" clip-path="url(#p4e67c234c9)" style="fill: none; stroke: #ffffff; stroke-linecap: round"/>
     </g>
     <g id="text_5">
      <!-- 0.8 -->
      <g style="fill: #262626" transform="translate(409.300455 521.373594)scale(0.11 -0.11)">
       <defs>
        <path id="ArialMT-38" d="M 1131 2484 
Q 781 2613 612 2850 
Q 444 3088 444 3419 
Q 444 3919 803 4259 
Q 1163 4600 1759 4600 
Q 2359 4600 2725 4251 
Q 3091 3903 3091 3403 
Q 3091 3084 2923 2848 
Q 2756 2613 2416 2484 
Q 2838 2347 3058 2040 
Q 3278 1734 3278 1309 
Q 3278 722 2862 322 
Q 2447 -78 1769 -78 
Q 1091 -78 675 323 
Q 259 725 259 1325 
Q 259 1772 486 2073 
Q 713 2375 1131 2484 
z
M 1019 3438 
Q 1019 3113 1228 2906 
Q 1438 2700 1772 2700 
Q 2097 2700 2305 2904 
Q 2513 3109 2513 3406 
Q 2513 3716 2298 3927 
Q 2084 4138 1766 4138 
Q 1444 4138 1231 3931 
Q 1019 3725 1019 3438 
z
M 838 1322 
Q 838 1081 952 856 
Q 1066 631 1291 507 
Q 1516 384 1775 384 
Q 2178 384 2440 643 
Q 2703 903 2703 1303 
Q 2703 1709 2433 1975 
Q 2163 2241 1756 2241 
Q 1359 2241 1098 1978 
Q 838 1716 838 1322 
z
" transform="scale(0.015625)"/>
       </defs>
       <use xlink:href="#ArialMT-30"/>
       <use xlink:href="#ArialMT-2e" x="55.615234"/>
       <use xlink:href="#ArialMT-38" x="83.398438"/>
      </g>
     </g>
    </g>
    <g id="xtick_6">
     <g id="line2d_6">
      <path d="M 498.109091 504 
L 498.109091 69.12 
" clip-path="url(#p4e67c234c9)" style="fill: none; stroke: #ffffff; stroke-linecap: round"/>
     </g>
     <g id="text_6">
      <!-- 1.0 -->
      <g style="fill: #262626" transform="translate(490.464091 521.373594)scale(0.11 -0.11)">
       <defs>
        <path id="ArialMT-31" d="M 2384 0 
L 1822 0 
L 1822 3584 
Q 1619 3391 1289 3197 
Q 959 3003 697 2906 
L 697 3450 
Q 1169 3672 1522 3987 
Q 1875 4303 2022 4600 
L 2384 4600 
L 2384 0 
z
" transform="scale(0.015625)"/>
       </defs>
       <use xlink:href="#ArialMT-31"/>
       <use xlink:href="#ArialMT-2e" x="55.615234"/>
       <use xlink:href="#ArialMT-30" x="83.398438"/>
      </g>
     </g>
    </g>
   </g>
   <g id="matplotlib.axis_2">
    <g id="ytick_1">
     <g id="line2d_7">
      <path d="M 72 484.232727 
L 518.4 484.232727 
" clip-path="url(#p4e67c234c9)" style="fill: none; stroke: #ffffff; stroke-linecap: round"/>
     </g>
     <g id="text_7">
      <!-- 0.0 -->
      <g style="fill: #262626" transform="translate(47.21 488.169524)scale(0.11 -0.11)">
       <use xlink:href="#ArialMT-30"/>
       <use xlink:href="#ArialMT-2e" x="55.615234"/>
       <use xlink:href="#ArialMT-30" x="83.398438"/>
      </g>
     </g>
    </g>
    <g id="ytick_2">
     <g id="line2d_8">
      <path d="M 72 405.163636 
L 518.4 405.163636 
" clip-path="url(#p4e67c234c9)" style="fill: none; stroke: #ffffff; stroke-linecap: round"/>
     </g>
     <g id="text_8">
      <!-- 0.2 -->
      <g style="fill: #262626" transform="translate(47.21 409.100433)scale(0.11 -0.11)">
       <use xlink:href="#ArialMT-30"/>
       <use xlink:href="#ArialMT-2e" x="55.615234"/>
       <use xlink:href="#ArialMT-32" x="83.398438"/>
      </g>
     </g>
    </g>
    <g id="ytick_3">
     <g id="line2d_9">
      <path d="M 72 326.094545 
L 518.4 326.094545 
" clip-path="url(#p4e67c234c9)" style="fill: none; stroke: #ffffff; stroke-linecap: round"/>
     </g>
     <g id="text_9">
      <!-- 0.4 -->
      <g style="fill: #262626" transform="translate(47.21 330.031342)scale(0.11 -0.11)">
       <use xlink:href="#ArialMT-30"/>
       <use xlink:href="#ArialMT-2e" x="55.615234"/>
       <use xlink:href="#ArialMT-34" x="83.398438"/>
      </g>
     </g>
    </g>
    <g id="ytick_4">
     <g id="line2d_10">
      <path d="M 72 247.025455 
L 518.4 247.025455 
" clip-path="url(#p4e67c234c9)" style="fill: none; stroke: #ffffff; stroke-linecap: round"/>
     </g>
     <g id="text_10">
      <!-- 0.6 -->
      <g style="fill: #262626" transform="translate(47.21 250.962251)scale(0.11 -0.11)">
       <use xlink:href="#ArialMT-30"/>
       <use xlink:href="#ArialMT-2e" x="55.615234"/>
       <use xlink:href="#ArialMT-36" x="83.398438"/>
      </g>
     </g>
    </g>
    <g id="ytick_5">
     <g id="line2d_11">
      <path d="M 72 167.956364 
L 518.4 167.956364 
" clip-path="url(#p4e67c234c9)" style="fill: none; stroke: #ffffff; stroke-linecap: round"/>
     </g>
     <g id="text_11">
      <!-- 0.8 -->
      <g style="fill: #262626" transform="translate(47.21 171.893161)scale(0.11 -0.11)">
       <use xlink:href="#ArialMT-30"/>
       <use xlink:href="#ArialMT-2e" x="55.615234"/>
       <use xlink:href="#ArialMT-38" x="83.398438"/>
      </g>
     </g>
    </g>
    <g id="ytick_6">
     <g id="line2d_12">
      <path d="M 72 88.887273 
L 518.4 88.887273 
" clip-path="url(#p4e67c234c9)" style="fill: none; stroke: #ffffff; stroke-linecap: round"/>
     </g>
     <g id="text_12">
      <!-- 1.0 -->
      <g style="fill: #262626" transform="translate(47.21 92.82407)scale(0.11 -0.11)">
       <use xlink:href="#ArialMT-31"/>
       <use xlink:href="#ArialMT-2e" x="55.615234"/>
       <use xlink:href="#ArialMT-30" x="83.398438"/>
      </g>
     </g>
    </g>
   </g>
   <g id="line2d_13">
    <path d="M 92.290909 484.232727 
L 96.390083 484.232727 
L 100.489256 483.034711 
L 104.58843 469.400142 
L 108.687603 458.617993 
L 112.786777 455.822621 
L 116.88595 453.027249 
L 120.985124 452.228571 
L 125.084298 440.932987 
L 129.183471 438.936293 
L 133.282645 432.147532 
L 137.381818 422.263896 
L 141.480992 410.583235 
L 145.580165 404.925935 
L 149.679339 400.466651 
L 153.778512 393.406911 
L 157.877686 386.439082 
L 161.97686 372.259383 
L 166.076033 366.085478 
L 170.175207 364.698885 
L 174.27438 361.692751 
L 178.373554 356.967241 
L 182.472727 336.623146 
L 186.571901 332.654056 
L 190.671074 325.511384 
L 194.770248 321.439818 
L 198.869421 315.742373 
L 202.968595 303.897961 
L 207.067769 293.841067 
L 211.166942 285.234153 
L 215.266116 277.321328 
L 219.365289 271.499221 
L 223.464463 270.168091 
L 227.563636 263.811948 
L 231.66281 254.815731 
L 235.761983 246.917696 
L 239.861157 244.14451 
L 243.960331 241.371324 
L 248.059504 237.999129 
L 252.158678 233.7617 
L 256.257851 227.472113 
L 260.357025 223.575843 
L 264.456198 219.54646 
L 268.555372 215.517077 
L 272.654545 211.048421 
L 276.753719 204.149502 
L 280.852893 195.156093 
L 284.952066 189.67256 
L 289.05124 187.416007 
L 293.150413 185.758463 
L 297.249587 182.703233 
L 301.34876 178.091396 
L 305.447934 173.83747 
L 309.547107 171.002728 
L 313.646281 167.624027 
L 317.745455 164.245327 
L 321.844628 161.280487 
L 325.943802 159.479435 
L 330.042975 157.998804 
L 334.142149 156.227227 
L 338.241322 154.455649 
L 342.340496 152.684072 
L 346.439669 150.984555 
L 350.538843 146.938977 
L 354.638017 142.693729 
L 358.73719 139.806233 
L 362.836364 137.937051 
L 366.935537 136.06787 
L 371.034711 134.198688 
L 375.133884 132.329506 
L 379.233058 130.460324 
L 383.332231 128.591142 
L 387.431405 126.721961 
L 391.530579 124.921352 
L 395.629752 123.602382 
L 399.728926 122.371123 
L 403.828099 121.139864 
L 407.927273 119.908605 
L 412.026446 118.677346 
L 416.12562 117.446087 
L 420.224793 116.214828 
L 424.323967 115.342975 
L 428.42314 114.531022 
L 432.522314 113.719068 
L 436.621488 112.86508 
L 440.720661 111.177384 
L 444.819835 109.489687 
L 448.919008 107.801991 
L 453.018182 106.114295 
L 457.117355 104.426599 
L 461.216529 102.738903 
L 465.315702 101.051207 
L 469.414876 99.387531 
L 473.51405 97.887494 
L 477.613223 96.387457 
L 481.712397 94.88742 
L 485.81157 93.387383 
L 489.910744 91.887347 
L 494.009917 90.38731 
L 498.109091 88.887273 
" clip-path="url(#p4e67c234c9)" style="fill: none; stroke: #1b9e77; stroke-opacity: 0.8; stroke-width: 2; stroke-linecap: round"/>
   </g>
   <g id="line2d_14">
    <path d="M 92.290909 484.232727 
L 96.390083 473.450579 
L 100.489256 468.103875 
L 104.58843 458.912743 
L 108.687603 444.986593 
L 112.786777 438.367393 
L 116.88595 427.887918 
L 120.985124 422.706021 
L 125.084298 418.872368 
L 129.183471 415.198451 
L 133.282645 409.550025 
L 137.381818 403.901599 
L 141.480992 400.200425 
L 145.580165 399.002409 
L 149.679339 395.57475 
L 153.778512 388.979004 
L 157.877686 378.685569 
L 161.97686 374.102681 
L 166.076033 367.494574 
L 170.175207 361.591965 
L 174.27438 357.100354 
L 178.373554 351.772033 
L 182.472727 345.93503 
L 186.571901 340.193108 
L 190.671074 335.536057 
L 194.770248 324.829972 
L 198.869421 318.022196 
L 202.968595 313.258654 
L 207.067769 309.493459 
L 211.166942 305.927934 
L 215.266116 300.665218 
L 219.365289 294.45645 
L 223.464463 284.530028 
L 227.563636 280.755325 
L 231.66281 277.280126 
L 235.761983 270.557922 
L 239.861157 269.702196 
L 243.960331 261.480887 
L 248.059504 251.548125 
L 252.158678 244.314704 
L 256.257851 238.216864 
L 260.357025 232.247382 
L 264.456198 228.052105 
L 268.555372 225.467496 
L 272.654545 223.492987 
L 276.753719 222.29497 
L 280.852893 220.944825 
L 284.952066 217.752016 
L 289.05124 213.948789 
L 293.150413 208.72886 
L 297.249587 202.01141 
L 301.34876 191.695632 
L 305.447934 187.818717 
L 309.547107 185.738827 
L 313.646281 178.909658 
L 317.745455 172.81974 
L 321.844628 167.300307 
L 325.943802 162.722172 
L 330.042975 159.884014 
L 334.142149 159.135254 
L 338.241322 154.243353 
L 342.340496 149.351452 
L 346.439669 146.456246 
L 350.538843 143.211617 
L 354.638017 137.654152 
L 358.73719 135.507706 
L 362.836364 132.03013 
L 366.935537 126.270618 
L 371.034711 116.432145 
L 375.133884 114.302338 
L 379.233058 114.302338 
L 383.332231 114.302338 
L 387.431405 114.302338 
L 391.530579 114.302338 
L 395.629752 114.302338 
L 399.728926 114.302338 
L 403.828099 114.302338 
L 407.927273 113.814257 
L 412.026446 110.442062 
L 416.12562 104.873504 
L 420.224793 101.523495 
L 424.323967 101.124156 
L 428.42314 101.124156 
L 432.522314 101.124156 
L 436.621488 101.124156 
L 440.720661 101.124156 
L 444.819835 101.124156 
L 448.919008 101.124156 
L 453.018182 101.124156 
L 457.117355 101.124156 
L 461.216529 100.774734 
L 465.315702 100.081438 
L 469.414876 99.286722 
L 473.51405 97.801086 
L 477.613223 96.315451 
L 481.712397 94.829815 
L 485.81157 93.344179 
L 489.910744 91.858544 
L 494.009917 90.372908 
L 498.109091 88.887273 
" clip-path="url(#p4e67c234c9)" style="fill: none; stroke: #d95f02; stroke-opacity: 0.8; stroke-width: 2; stroke-linecap: round"/>
   </g>
   <g id="line2d_15">
    <path d="M 92.290909 484.232727 
L 96.390083 477.643636 
L 100.489256 471.054545 
L 104.58843 471.054545 
L 108.687603 444.698182 
L 112.786777 444.698182 
L 116.88595 444.698182 
L 120.985124 444.698182 
L 125.084298 444.698182 
L 129.183471 444.698182 
L 133.282645 438.109091 
L 137.381818 431.52 
L 141.480992 425.872208 
L 145.580165 425.872208 
L 149.679339 419.283117 
L 153.778512 399.515844 
L 157.877686 399.515844 
L 161.97686 399.515844 
L 166.076033 392.926753 
L 170.175207 392.926753 
L 174.27438 387.278961 
L 178.373554 387.278961 
L 182.472727 374.100779 
L 186.571901 368.452987 
L 190.671074 362.805195 
L 194.770248 356.216104 
L 198.869421 349.627013 
L 202.968595 343.037922 
L 207.067769 329.85974 
L 211.166942 317.622857 
L 215.266116 305.385974 
L 219.365289 293.149091 
L 223.464463 293.149091 
L 227.563636 280.912208 
L 231.66281 280.912208 
L 235.761983 268.675325 
L 239.861157 249.849351 
L 243.960331 243.26026 
L 248.059504 243.26026 
L 252.158678 237.612468 
L 256.257851 237.612468 
L 260.357025 231.964675 
L 264.456198 218.786494 
L 268.555372 218.786494 
L 272.654545 205.608312 
L 276.753719 199.960519 
L 280.852893 193.371429 
L 284.952066 186.782338 
L 289.05124 186.782338 
L 293.150413 180.193247 
L 297.249587 180.193247 
L 301.34876 167.956364 
L 305.447934 167.956364 
L 309.547107 167.956364 
L 313.646281 143.482597 
L 317.745455 143.482597 
L 321.844628 143.482597 
L 325.943802 143.482597 
L 330.042975 137.834805 
L 334.142149 137.834805 
L 338.241322 137.834805 
L 342.340496 132.187013 
L 346.439669 132.187013 
L 350.538843 125.597922 
L 354.638017 125.597922 
L 358.73719 125.597922 
L 362.836364 125.597922 
L 366.935537 119.008831 
L 371.034711 113.361039 
L 375.133884 107.713247 
L 379.233058 107.713247 
L 383.332231 107.713247 
L 387.431405 107.713247 
L 391.530579 107.713247 
L 395.629752 107.713247 
L 399.728926 107.713247 
L 403.828099 107.713247 
L 407.927273 107.713247 
L 412.026446 107.713247 
L 416.12562 107.713247 
L 420.224793 107.713247 
L 424.323967 107.713247 
L 428.42314 107.713247 
L 432.522314 101.124156 
L 436.621488 101.124156 
L 440.720661 94.535065 
L 444.819835 94.535065 
L 448.919008 94.535065 
L 453.018182 94.535065 
L 457.117355 88.887273 
L 461.216529 88.887273 
L 465.315702 88.887273 
L 469.414876 88.887273 
L 473.51405 88.887273 
L 477.613223 88.887273 
L 481.712397 88.887273 
L 485.81157 88.887273 
L 489.910744 88.887273 
L 494.009917 88.887273 
L 498.109091 88.887273 
" clip-path="url(#p4e67c234c9)" style="fill: none; stroke: #7570b3; stroke-opacity: 0.8; stroke-width: 2; stroke-linecap: round"/>
   </g>
   <g id="line2d_16">
    <path d="M 92.290909 484.232727 
L 96.390083 471.995844 
L 100.489256 466.348052 
L 104.58843 459.758961 
L 108.687603 446.580779 
L 112.786777 446.580779 
L 116.88595 446.580779 
L 120.985124 440.932987 
L 125.084298 434.343896 
L 129.183471 428.696104 
L 133.282645 422.107013 
L 137.381818 408.928831 
L 141.480992 408.928831 
L 145.580165 402.33974 
L 149.679339 395.750649 
L 153.778512 382.572468 
L 157.877686 369.394286 
L 161.97686 356.216104 
L 166.076033 343.037922 
L 170.175207 343.037922 
L 174.27438 330.801039 
L 178.373554 330.801039 
L 182.472727 311.975065 
L 186.571901 305.385974 
L 190.671074 305.385974 
L 194.770248 305.385974 
L 198.869421 292.207792 
L 202.968595 280.912208 
L 207.067769 280.912208 
L 211.166942 275.264416 
L 215.266116 262.086234 
L 219.365289 262.086234 
L 223.464463 256.438442 
L 227.563636 249.849351 
L 231.66281 243.26026 
L 235.761983 236.671169 
L 239.861157 230.082078 
L 243.960331 212.197403 
L 248.059504 205.608312 
L 252.158678 205.608312 
L 256.257851 199.960519 
L 260.357025 199.960519 
L 264.456198 199.960519 
L 268.555372 183.017143 
L 272.654545 177.369351 
L 276.753719 170.78026 
L 280.852893 164.191169 
L 284.952066 164.191169 
L 289.05124 157.602078 
L 293.150413 151.012987 
L 297.249587 144.423896 
L 301.34876 144.423896 
L 305.447934 144.423896 
L 309.547107 144.423896 
L 313.646281 144.423896 
L 317.745455 144.423896 
L 321.844628 144.423896 
L 325.943802 138.776104 
L 330.042975 132.187013 
L 334.142149 132.187013 
L 338.241322 126.539221 
L 342.340496 126.539221 
L 346.439669 126.539221 
L 350.538843 126.539221 
L 354.638017 119.95013 
L 358.73719 119.95013 
L 362.836364 119.95013 
L 366.935537 119.95013 
L 371.034711 119.95013 
L 375.133884 119.95013 
L 379.233058 119.95013 
L 383.332231 119.95013 
L 387.431405 113.361039 
L 391.530579 113.361039 
L 395.629752 113.361039 
L 399.728926 113.361039 
L 403.828099 113.361039 
L 407.927273 113.361039 
L 412.026446 113.361039 
L 416.12562 113.361039 
L 420.224793 107.713247 
L 424.323967 107.713247 
L 428.42314 107.713247 
L 432.522314 107.713247 
L 436.621488 107.713247 
L 440.720661 107.713247 
L 444.819835 107.713247 
L 448.919008 107.713247 
L 453.018182 107.713247 
L 457.117355 107.713247 
L 461.216529 101.124156 
L 465.315702 95.476364 
L 469.414876 95.476364 
L 473.51405 95.476364 
L 477.613223 95.476364 
L 481.712397 95.476364 
L 485.81157 95.476364 
L 489.910744 95.476364 
L 494.009917 95.476364 
L 498.109091 88.887273 
" clip-path="url(#p4e67c234c9)" style="fill: none; stroke: #e7298a; stroke-opacity: 0.8; stroke-width: 2; stroke-linecap: round"/>
   </g>
   <g id="line2d_17">
    <path d="M 92.290909 484.232727 
L 96.390083 478.018773 
L 100.489256 468.676664 
L 104.58843 459.001773 
L 108.687603 447.130518 
L 112.786777 443.345875 
L 116.88595 436.309473 
L 120.985124 425.393779 
L 125.084298 416.058009 
L 129.183471 414.127367 
L 133.282645 413.134566 
L 137.381818 395.184127 
L 141.480992 393.863298 
L 145.580165 393.170001 
L 149.679339 391.128936 
L 153.778512 388.139441 
L 157.877686 382.554244 
L 161.97686 378.017311 
L 166.076033 374.927981 
L 170.175207 362.947816 
L 174.27438 347.031311 
L 178.373554 342.495962 
L 182.472727 337.651602 
L 186.571901 326.95978 
L 190.671074 324.069327 
L 194.770248 318.896938 
L 198.869421 311.756379 
L 202.968595 304.102385 
L 207.067769 302.904368 
L 211.166942 301.706352 
L 215.266116 301.231424 
L 219.365289 297.707259 
L 223.464463 290.132656 
L 227.563636 287.407169 
L 231.66281 266.371995 
L 235.761983 254.891004 
L 239.861157 246.105549 
L 243.960331 243.26026 
L 248.059504 243.26026 
L 252.158678 236.671169 
L 256.257851 230.082078 
L 260.357025 230.082078 
L 264.456198 230.082078 
L 268.555372 230.082078 
L 272.654545 226.421472 
L 276.753719 221.182527 
L 280.852893 199.019221 
L 284.952066 199.019221 
L 289.05124 197.022527 
L 293.150413 190.409665 
L 297.249587 181.134545 
L 301.34876 174.621519 
L 305.447934 161.311492 
L 309.547107 154.921437 
L 313.646281 153.06673 
L 317.745455 151.389506 
L 321.844628 145.412735 
L 325.943802 143.482597 
L 330.042975 143.482597 
L 334.142149 142.044978 
L 338.241322 140.367754 
L 342.340496 138.690531 
L 346.439669 137.013308 
L 350.538843 136.893506 
L 354.638017 136.132861 
L 358.73719 134.944353 
L 362.836364 133.755844 
L 366.935537 132.567336 
L 371.034711 131.378827 
L 375.133884 125.597922 
L 379.233058 125.597922 
L 383.332231 125.597922 
L 387.431405 125.597922 
L 391.530579 119.95013 
L 395.629752 119.95013 
L 399.728926 119.95013 
L 403.828099 115.158064 
L 407.927273 113.361039 
L 412.026446 113.361039 
L 416.12562 113.361039 
L 420.224793 113.361039 
L 424.323967 113.361039 
L 428.42314 113.361039 
L 432.522314 113.361039 
L 436.621488 113.340021 
L 440.720661 112.90215 
L 444.819835 106.816486 
L 448.919008 106.378614 
L 453.018182 105.895919 
L 457.117355 104.948687 
L 461.216529 104.001454 
L 465.315702 103.054222 
L 469.414876 95.517899 
L 473.51405 94.570667 
L 477.613223 93.623434 
L 481.712397 92.676202 
L 485.81157 91.72897 
L 489.910744 90.781737 
L 494.009917 89.834505 
L 498.109091 88.887273 
" clip-path="url(#p4e67c234c9)" style="fill: none; stroke: #66a61e; stroke-opacity: 0.8; stroke-width: 2; stroke-linecap: round"/>
   </g>
   <g id="line2d_18">
    <path d="M 92.290909 484.232727 
L 498.109091 88.887273 
" clip-path="url(#p4e67c234c9)" style="fill: none; stroke-dasharray: 7.4,3.2; stroke-dashoffset: 0; stroke: #1a1a1a; stroke-opacity: 0.8; stroke-width: 2"/>
   </g>
   <g id="patch_3">
    <path d="M 72 504 
L 72 69.12 
" style="fill: none; stroke: #ffffff; stroke-width: 1.25; stroke-linejoin: miter; stroke-linecap: square"/>
   </g>
   <g id="patch_4">
    <path d="M 518.4 504 
L 518.4 69.12 
" style="fill: none; stroke: #ffffff; stroke-width: 1.25; stroke-linejoin: miter; stroke-linecap: square"/>
   </g>
   <g id="patch_5">
    <path d="M 72 504 
L 518.4 504 
" style="fill: none; stroke: #ffffff; stroke-width: 1.25; stroke-linejoin: miter; stroke-linecap: square"/>
   </g>
   <g id="patch_6">
    <path d="M 72 69.12 
L 518.4 69.12 
" style="fill: none; stroke: #ffffff; stroke-width: 1.25; stroke-linejoin: miter; stroke-linecap: square"/>
   </g>
   <g id="legend_1">
    <g id="patch_7">
     <path d="M 387.39 498.5 
L 510.7 498.5 
Q 512.9 498.5 512.9 496.3 
L 512.9 387.566562 
Q 512.9 385.366562 510.7 385.366562 
L 387.39 385.366562 
Q 385.19 385.366562 385.19 387.566562 
L 385.19 496.3 
Q 385.19 498.5 387.39 498.5 
z
" style="fill: #eaeaf2; opacity: 0.8; stroke: #cccccc; stroke-linejoin: miter"/>
    </g>
    <g id="text_13">
     <!-- Models Best AUC -->
     <g style="fill: #262626" transform="translate(402.026562 398.355937)scale(0.12 -0.12)">
      <defs>
       <path id="ArialMT-4d" d="M 475 0 
L 475 4581 
L 1388 4581 
L 2472 1338 
Q 2622 884 2691 659 
Q 2769 909 2934 1394 
L 4031 4581 
L 4847 4581 
L 4847 0 
L 4263 0 
L 4263 3834 
L 2931 0 
L 2384 0 
L 1059 3900 
L 1059 0 
L 475 0 
z
" transform="scale(0.015625)"/>
       <path id="ArialMT-6f" d="M 213 1659 
Q 213 2581 725 3025 
Q 1153 3394 1769 3394 
Q 2453 3394 2887 2945 
Q 3322 2497 3322 1706 
Q 3322 1066 3130 698 
Q 2938 331 2570 128 
Q 2203 -75 1769 -75 
Q 1072 -75 642 372 
Q 213 819 213 1659 
z
M 791 1659 
Q 791 1022 1069 705 
Q 1347 388 1769 388 
Q 2188 388 2466 706 
Q 2744 1025 2744 1678 
Q 2744 2294 2464 2611 
Q 2184 2928 1769 2928 
Q 1347 2928 1069 2612 
Q 791 2297 791 1659 
z
" transform="scale(0.015625)"/>
       <path id="ArialMT-64" d="M 2575 0 
L 2575 419 
Q 2259 -75 1647 -75 
Q 1250 -75 917 144 
Q 584 363 401 755 
Q 219 1147 219 1656 
Q 219 2153 384 2558 
Q 550 2963 881 3178 
Q 1213 3394 1622 3394 
Q 1922 3394 2156 3267 
Q 2391 3141 2538 2938 
L 2538 4581 
L 3097 4581 
L 3097 0 
L 2575 0 
z
M 797 1656 
Q 797 1019 1065 703 
Q 1334 388 1700 388 
Q 2069 388 2326 689 
Q 2584 991 2584 1609 
Q 2584 2291 2321 2609 
Q 2059 2928 1675 2928 
Q 1300 2928 1048 2622 
Q 797 2316 797 1656 
z
" transform="scale(0.015625)"/>
       <path id="ArialMT-65" d="M 2694 1069 
L 3275 997 
Q 3138 488 2766 206 
Q 2394 -75 1816 -75 
Q 1088 -75 661 373 
Q 234 822 234 1631 
Q 234 2469 665 2931 
Q 1097 3394 1784 3394 
Q 2450 3394 2872 2941 
Q 3294 2488 3294 1666 
Q 3294 1616 3291 1516 
L 816 1516 
Q 847 969 1125 678 
Q 1403 388 1819 388 
Q 2128 388 2347 550 
Q 2566 713 2694 1069 
z
M 847 1978 
L 2700 1978 
Q 2663 2397 2488 2606 
Q 2219 2931 1791 2931 
Q 1403 2931 1139 2672 
Q 875 2413 847 1978 
z
" transform="scale(0.015625)"/>
       <path id="ArialMT-6c" d="M 409 0 
L 409 4581 
L 972 4581 
L 972 0 
L 409 0 
z
" transform="scale(0.015625)"/>
       <path id="ArialMT-73" d="M 197 991 
L 753 1078 
Q 800 744 1014 566 
Q 1228 388 1613 388 
Q 2000 388 2187 545 
Q 2375 703 2375 916 
Q 2375 1106 2209 1216 
Q 2094 1291 1634 1406 
Q 1016 1563 777 1677 
Q 538 1791 414 1992 
Q 291 2194 291 2438 
Q 291 2659 392 2848 
Q 494 3038 669 3163 
Q 800 3259 1026 3326 
Q 1253 3394 1513 3394 
Q 1903 3394 2198 3281 
Q 2494 3169 2634 2976 
Q 2775 2784 2828 2463 
L 2278 2388 
Q 2241 2644 2061 2787 
Q 1881 2931 1553 2931 
Q 1166 2931 1000 2803 
Q 834 2675 834 2503 
Q 834 2394 903 2306 
Q 972 2216 1119 2156 
Q 1203 2125 1616 2013 
Q 2213 1853 2448 1751 
Q 2684 1650 2818 1456 
Q 2953 1263 2953 975 
Q 2953 694 2789 445 
Q 2625 197 2315 61 
Q 2006 -75 1616 -75 
Q 969 -75 630 194 
Q 291 463 197 991 
z
" transform="scale(0.015625)"/>
       <path id="ArialMT-20" transform="scale(0.015625)"/>
       <path id="ArialMT-42" d="M 469 0 
L 469 4581 
L 2188 4581 
Q 2713 4581 3030 4442 
Q 3347 4303 3526 4014 
Q 3706 3725 3706 3409 
Q 3706 3116 3547 2856 
Q 3388 2597 3066 2438 
Q 3481 2316 3704 2022 
Q 3928 1728 3928 1328 
Q 3928 1006 3792 729 
Q 3656 453 3456 303 
Q 3256 153 2954 76 
Q 2653 0 2216 0 
L 469 0 
z
M 1075 2656 
L 2066 2656 
Q 2469 2656 2644 2709 
Q 2875 2778 2992 2937 
Q 3109 3097 3109 3338 
Q 3109 3566 3000 3739 
Q 2891 3913 2687 3977 
Q 2484 4041 1991 4041 
L 1075 4041 
L 1075 2656 
z
M 1075 541 
L 2216 541 
Q 2509 541 2628 563 
Q 2838 600 2978 687 
Q 3119 775 3209 942 
Q 3300 1109 3300 1328 
Q 3300 1584 3169 1773 
Q 3038 1963 2805 2039 
Q 2572 2116 2134 2116 
L 1075 2116 
L 1075 541 
z
" transform="scale(0.015625)"/>
       <path id="ArialMT-74" d="M 1650 503 
L 1731 6 
Q 1494 -44 1306 -44 
Q 1000 -44 831 53 
Q 663 150 594 308 
Q 525 466 525 972 
L 525 2881 
L 113 2881 
L 113 3319 
L 525 3319 
L 525 4141 
L 1084 4478 
L 1084 3319 
L 1650 3319 
L 1650 2881 
L 1084 2881 
L 1084 941 
Q 1084 700 1114 631 
Q 1144 563 1211 522 
Q 1278 481 1403 481 
Q 1497 481 1650 503 
z
" transform="scale(0.015625)"/>
       <path id="ArialMT-41" d="M -9 0 
L 1750 4581 
L 2403 4581 
L 4278 0 
L 3588 0 
L 3053 1388 
L 1138 1388 
L 634 0 
L -9 0 
z
M 1313 1881 
L 2866 1881 
L 2388 3150 
Q 2169 3728 2063 4100 
Q 1975 3659 1816 3225 
L 1313 1881 
z
" transform="scale(0.015625)"/>
       <path id="ArialMT-55" d="M 3500 4581 
L 4106 4581 
L 4106 1934 
Q 4106 1244 3950 837 
Q 3794 431 3386 176 
Q 2978 -78 2316 -78 
Q 1672 -78 1262 144 
Q 853 366 678 786 
Q 503 1206 503 1934 
L 503 4581 
L 1109 4581 
L 1109 1938 
Q 1109 1341 1220 1058 
Q 1331 775 1601 622 
Q 1872 469 2263 469 
Q 2931 469 3215 772 
Q 3500 1075 3500 1938 
L 3500 4581 
z
" transform="scale(0.015625)"/>
       <path id="ArialMT-43" d="M 3763 1606 
L 4369 1453 
Q 4178 706 3683 314 
Q 3188 -78 2472 -78 
Q 1731 -78 1267 223 
Q 803 525 561 1097 
Q 319 1669 319 2325 
Q 319 3041 592 3573 
Q 866 4106 1370 4382 
Q 1875 4659 2481 4659 
Q 3169 4659 3637 4309 
Q 4106 3959 4291 3325 
L 3694 3184 
Q 3534 3684 3231 3912 
Q 2928 4141 2469 4141 
Q 1941 4141 1586 3887 
Q 1231 3634 1087 3207 
Q 944 2781 944 2328 
Q 944 1744 1114 1308 
Q 1284 872 1643 656 
Q 2003 441 2422 441 
Q 2931 441 3284 734 
Q 3638 1028 3763 1606 
z
" transform="scale(0.015625)"/>
      </defs>
      <use xlink:href="#ArialMT-4d"/>
      <use xlink:href="#ArialMT-6f" x="83.300781"/>
      <use xlink:href="#ArialMT-64" x="138.916016"/>
      <use xlink:href="#ArialMT-65" x="194.53125"/>
      <use xlink:href="#ArialMT-6c" x="250.146484"/>
      <use xlink:href="#ArialMT-73" x="272.363281"/>
      <use xlink:href="#ArialMT-20" x="322.363281"/>
      <use xlink:href="#ArialMT-42" x="350.146484"/>
      <use xlink:href="#ArialMT-65" x="416.845703"/>
      <use xlink:href="#ArialMT-73" x="472.460938"/>
      <use xlink:href="#ArialMT-74" x="522.460938"/>
      <use xlink:href="#ArialMT-20" x="550.244141"/>
      <use xlink:href="#ArialMT-41" x="572.527344"/>
      <use xlink:href="#ArialMT-55" x="639.226562"/>
      <use xlink:href="#ArialMT-43" x="711.443359"/>
     </g>
    </g>
    <g id="line2d_19">
     <path d="M 389.59 410.264531 
L 400.59 410.264531 
L 411.59 410.264531 
" style="fill: none; stroke: #1b9e77; stroke-opacity: 0.8; stroke-width: 2; stroke-linecap: round"/>
    </g>
    <g id="text_14">
     <!-- DT: 0.65 $\pm$ 0.07 -->
     <g style="fill: #262626" transform="translate(420.39 414.114531)scale(0.11 -0.11)">
      <defs>
       <path id="ArialMT-44" d="M 494 0 
L 494 4581 
L 2072 4581 
Q 2606 4581 2888 4516 
Q 3281 4425 3559 4188 
Q 3922 3881 4101 3404 
Q 4281 2928 4281 2316 
Q 4281 1794 4159 1391 
Q 4038 988 3847 723 
Q 3656 459 3429 307 
Q 3203 156 2883 78 
Q 2563 0 2147 0 
L 494 0 
z
M 1100 541 
L 2078 541 
Q 2531 541 2789 625 
Q 3047 709 3200 863 
Q 3416 1078 3536 1442 
Q 3656 1806 3656 2325 
Q 3656 3044 3420 3430 
Q 3184 3816 2847 3947 
Q 2603 4041 2063 4041 
L 1100 4041 
L 1100 541 
z
" transform="scale(0.015625)"/>
       <path id="ArialMT-54" d="M 1659 0 
L 1659 4041 
L 150 4041 
L 150 4581 
L 3781 4581 
L 3781 4041 
L 2266 4041 
L 2266 0 
L 1659 0 
z
" transform="scale(0.015625)"/>
       <path id="ArialMT-3a" d="M 578 2678 
L 578 3319 
L 1219 3319 
L 1219 2678 
L 578 2678 
z
M 578 0 
L 578 641 
L 1219 641 
L 1219 0 
L 578 0 
z
" transform="scale(0.015625)"/>
       <path id="ArialMT-35" d="M 266 1200 
L 856 1250 
Q 922 819 1161 601 
Q 1400 384 1738 384 
Q 2144 384 2425 690 
Q 2706 997 2706 1503 
Q 2706 1984 2436 2262 
Q 2166 2541 1728 2541 
Q 1456 2541 1237 2417 
Q 1019 2294 894 2097 
L 366 2166 
L 809 4519 
L 3088 4519 
L 3088 3981 
L 1259 3981 
L 1013 2750 
Q 1425 3038 1878 3038 
Q 2478 3038 2890 2622 
Q 3303 2206 3303 1553 
Q 3303 931 2941 478 
Q 2500 -78 1738 -78 
Q 1113 -78 717 272 
Q 322 622 266 1200 
z
" transform="scale(0.015625)"/>
       <path id="DejaVuSans-b1" d="M 2944 4013 
L 2944 2803 
L 4684 2803 
L 4684 2272 
L 2944 2272 
L 2944 1063 
L 2419 1063 
L 2419 2272 
L 678 2272 
L 678 2803 
L 2419 2803 
L 2419 4013 
L 2944 4013 
z
M 678 531 
L 4684 531 
L 4684 0 
L 678 0 
L 678 531 
z
" transform="scale(0.015625)"/>
       <path id="ArialMT-37" d="M 303 3981 
L 303 4522 
L 3269 4522 
L 3269 4084 
Q 2831 3619 2401 2847 
Q 1972 2075 1738 1259 
Q 1569 684 1522 0 
L 944 0 
Q 953 541 1156 1306 
Q 1359 2072 1739 2783 
Q 2119 3494 2547 3981 
L 303 3981 
z
" transform="scale(0.015625)"/>
      </defs>
      <use xlink:href="#ArialMT-44" transform="translate(0 0.125)"/>
      <use xlink:href="#ArialMT-54" transform="translate(72.216797 0.125)"/>
      <use xlink:href="#ArialMT-3a" transform="translate(133.300781 0.125)"/>
      <use xlink:href="#ArialMT-20" transform="translate(161.083984 0.125)"/>
      <use xlink:href="#ArialMT-30" transform="translate(188.867188 0.125)"/>
      <use xlink:href="#ArialMT-2e" transform="translate(244.482422 0.125)"/>
      <use xlink:href="#ArialMT-36" transform="translate(272.265625 0.125)"/>
      <use xlink:href="#ArialMT-35" transform="translate(327.880859 0.125)"/>
      <use xlink:href="#ArialMT-20" transform="translate(383.496094 0.125)"/>
      <use xlink:href="#DejaVuSans-b1" transform="translate(411.279297 0.125)"/>
      <use xlink:href="#ArialMT-20" transform="translate(495.068359 0.125)"/>
      <use xlink:href="#ArialMT-30" transform="translate(522.851562 0.125)"/>
      <use xlink:href="#ArialMT-2e" transform="translate(578.466797 0.125)"/>
      <use xlink:href="#ArialMT-30" transform="translate(606.25 0.125)"/>
      <use xlink:href="#ArialMT-37" transform="translate(661.865234 0.125)"/>
     </g>
    </g>
    <g id="line2d_20">
     <path d="M 389.59 425.824375 
L 400.59 425.824375 
L 411.59 425.824375 
" style="fill: none; stroke: #d95f02; stroke-opacity: 0.8; stroke-width: 2; stroke-linecap: round"/>
    </g>
    <g id="text_15">
     <!-- KNN: 0.65 $\pm$ 0.06 -->
     <g style="fill: #262626" transform="translate(420.39 429.674375)scale(0.11 -0.11)">
      <defs>
       <path id="ArialMT-4b" d="M 469 0 
L 469 4581 
L 1075 4581 
L 1075 2309 
L 3350 4581 
L 4172 4581 
L 2250 2725 
L 4256 0 
L 3456 0 
L 1825 2319 
L 1075 1588 
L 1075 0 
L 469 0 
z
" transform="scale(0.015625)"/>
       <path id="ArialMT-4e" d="M 488 0 
L 488 4581 
L 1109 4581 
L 3516 984 
L 3516 4581 
L 4097 4581 
L 4097 0 
L 3475 0 
L 1069 3600 
L 1069 0 
L 488 0 
z
" transform="scale(0.015625)"/>
      </defs>
      <use xlink:href="#ArialMT-4b" transform="translate(0 0.125)"/>
      <use xlink:href="#ArialMT-4e" transform="translate(66.699219 0.125)"/>
      <use xlink:href="#ArialMT-4e" transform="translate(138.916016 0.125)"/>
      <use xlink:href="#ArialMT-3a" transform="translate(211.132812 0.125)"/>
      <use xlink:href="#ArialMT-20" transform="translate(238.916016 0.125)"/>
      <use xlink:href="#ArialMT-30" transform="translate(266.699219 0.125)"/>
      <use xlink:href="#ArialMT-2e" transform="translate(322.314453 0.125)"/>
      <use xlink:href="#ArialMT-36" transform="translate(350.097656 0.125)"/>
      <use xlink:href="#ArialMT-35" transform="translate(405.712891 0.125)"/>
      <use xlink:href="#ArialMT-20" transform="translate(461.328125 0.125)"/>
      <use xlink:href="#DejaVuSans-b1" transform="translate(489.111328 0.125)"/>
      <use xlink:href="#ArialMT-20" transform="translate(572.900391 0.125)"/>
      <use xlink:href="#ArialMT-30" transform="translate(600.683594 0.125)"/>
      <use xlink:href="#ArialMT-2e" transform="translate(656.298828 0.125)"/>
      <use xlink:href="#ArialMT-30" transform="translate(684.082031 0.125)"/>
      <use xlink:href="#ArialMT-36" transform="translate(739.697266 0.125)"/>
     </g>
    </g>
    <g id="line2d_21">
     <path d="M 389.59 441.384219 
L 400.59 441.384219 
L 411.59 441.384219 
" style="fill: none; stroke: #7570b3; stroke-opacity: 0.8; stroke-width: 2; stroke-linecap: round"/>
    </g>
    <g id="text_16">
     <!-- RF: 0.65 $\pm$ 0.08 -->
     <g style="fill: #262626" transform="translate(420.39 445.234219)scale(0.11 -0.11)">
      <defs>
       <path id="ArialMT-52" d="M 503 0 
L 503 4581 
L 2534 4581 
Q 3147 4581 3465 4457 
Q 3784 4334 3975 4021 
Q 4166 3709 4166 3331 
Q 4166 2844 3850 2509 
Q 3534 2175 2875 2084 
Q 3116 1969 3241 1856 
Q 3506 1613 3744 1247 
L 4541 0 
L 3778 0 
L 3172 953 
Q 2906 1366 2734 1584 
Q 2563 1803 2427 1890 
Q 2291 1978 2150 2013 
Q 2047 2034 1813 2034 
L 1109 2034 
L 1109 0 
L 503 0 
z
M 1109 2559 
L 2413 2559 
Q 2828 2559 3062 2645 
Q 3297 2731 3419 2920 
Q 3541 3109 3541 3331 
Q 3541 3656 3305 3865 
Q 3069 4075 2559 4075 
L 1109 4075 
L 1109 2559 
z
" transform="scale(0.015625)"/>
       <path id="ArialMT-46" d="M 525 0 
L 525 4581 
L 3616 4581 
L 3616 4041 
L 1131 4041 
L 1131 2622 
L 3281 2622 
L 3281 2081 
L 1131 2081 
L 1131 0 
L 525 0 
z
" transform="scale(0.015625)"/>
      </defs>
      <use xlink:href="#ArialMT-52" transform="translate(0 0.125)"/>
      <use xlink:href="#ArialMT-46" transform="translate(72.216797 0.125)"/>
      <use xlink:href="#ArialMT-3a" transform="translate(133.300781 0.125)"/>
      <use xlink:href="#ArialMT-20" transform="translate(161.083984 0.125)"/>
      <use xlink:href="#ArialMT-30" transform="translate(188.867188 0.125)"/>
      <use xlink:href="#ArialMT-2e" transform="translate(244.482422 0.125)"/>
      <use xlink:href="#ArialMT-36" transform="translate(272.265625 0.125)"/>
      <use xlink:href="#ArialMT-35" transform="translate(327.880859 0.125)"/>
      <use xlink:href="#ArialMT-20" transform="translate(383.496094 0.125)"/>
      <use xlink:href="#DejaVuSans-b1" transform="translate(411.279297 0.125)"/>
      <use xlink:href="#ArialMT-20" transform="translate(495.068359 0.125)"/>
      <use xlink:href="#ArialMT-30" transform="translate(522.851562 0.125)"/>
      <use xlink:href="#ArialMT-2e" transform="translate(578.466797 0.125)"/>
      <use xlink:href="#ArialMT-30" transform="translate(606.25 0.125)"/>
      <use xlink:href="#ArialMT-38" transform="translate(661.865234 0.125)"/>
     </g>
    </g>
    <g id="line2d_22">
     <path d="M 389.59 456.944062 
L 400.59 456.944062 
L 411.59 456.944062 
" style="fill: none; stroke: #e7298a; stroke-opacity: 0.8; stroke-width: 2; stroke-linecap: round"/>
    </g>
    <g id="text_17">
     <!-- SVM: 0.69 $\pm$ 0.10 -->
     <g style="fill: #262626" transform="translate(420.39 460.794062)scale(0.11 -0.11)">
      <defs>
       <path id="ArialMT-53" d="M 288 1472 
L 859 1522 
Q 900 1178 1048 958 
Q 1197 738 1509 602 
Q 1822 466 2213 466 
Q 2559 466 2825 569 
Q 3091 672 3220 851 
Q 3350 1031 3350 1244 
Q 3350 1459 3225 1620 
Q 3100 1781 2813 1891 
Q 2628 1963 1997 2114 
Q 1366 2266 1113 2400 
Q 784 2572 623 2826 
Q 463 3081 463 3397 
Q 463 3744 659 4045 
Q 856 4347 1234 4503 
Q 1613 4659 2075 4659 
Q 2584 4659 2973 4495 
Q 3363 4331 3572 4012 
Q 3781 3694 3797 3291 
L 3216 3247 
Q 3169 3681 2898 3903 
Q 2628 4125 2100 4125 
Q 1550 4125 1298 3923 
Q 1047 3722 1047 3438 
Q 1047 3191 1225 3031 
Q 1400 2872 2139 2705 
Q 2878 2538 3153 2413 
Q 3553 2228 3743 1945 
Q 3934 1663 3934 1294 
Q 3934 928 3725 604 
Q 3516 281 3123 101 
Q 2731 -78 2241 -78 
Q 1619 -78 1198 103 
Q 778 284 539 648 
Q 300 1013 288 1472 
z
" transform="scale(0.015625)"/>
       <path id="ArialMT-56" d="M 1803 0 
L 28 4581 
L 684 4581 
L 1875 1253 
Q 2019 853 2116 503 
Q 2222 878 2363 1253 
L 3600 4581 
L 4219 4581 
L 2425 0 
L 1803 0 
z
" transform="scale(0.015625)"/>
       <path id="ArialMT-39" d="M 350 1059 
L 891 1109 
Q 959 728 1153 556 
Q 1347 384 1650 384 
Q 1909 384 2104 503 
Q 2300 622 2425 820 
Q 2550 1019 2634 1356 
Q 2719 1694 2719 2044 
Q 2719 2081 2716 2156 
Q 2547 1888 2255 1720 
Q 1963 1553 1622 1553 
Q 1053 1553 659 1965 
Q 266 2378 266 3053 
Q 266 3750 677 4175 
Q 1088 4600 1706 4600 
Q 2153 4600 2523 4359 
Q 2894 4119 3086 3673 
Q 3278 3228 3278 2384 
Q 3278 1506 3087 986 
Q 2897 466 2520 194 
Q 2144 -78 1638 -78 
Q 1100 -78 759 220 
Q 419 519 350 1059 
z
M 2653 3081 
Q 2653 3566 2395 3850 
Q 2138 4134 1775 4134 
Q 1400 4134 1122 3828 
Q 844 3522 844 3034 
Q 844 2597 1108 2323 
Q 1372 2050 1759 2050 
Q 2150 2050 2401 2323 
Q 2653 2597 2653 3081 
z
" transform="scale(0.015625)"/>
      </defs>
      <use xlink:href="#ArialMT-53" transform="translate(0 0.203125)"/>
      <use xlink:href="#ArialMT-56" transform="translate(66.699219 0.203125)"/>
      <use xlink:href="#ArialMT-4d" transform="translate(133.398438 0.203125)"/>
      <use xlink:href="#ArialMT-3a" transform="translate(216.699219 0.203125)"/>
      <use xlink:href="#ArialMT-20" transform="translate(244.482422 0.203125)"/>
      <use xlink:href="#ArialMT-30" transform="translate(272.265625 0.203125)"/>
      <use xlink:href="#ArialMT-2e" transform="translate(327.880859 0.203125)"/>
      <use xlink:href="#ArialMT-36" transform="translate(355.664062 0.203125)"/>
      <use xlink:href="#ArialMT-39" transform="translate(411.279297 0.203125)"/>
      <use xlink:href="#ArialMT-20" transform="translate(466.894531 0.203125)"/>
      <use xlink:href="#DejaVuSans-b1" transform="translate(494.677734 0.203125)"/>
      <use xlink:href="#ArialMT-20" transform="translate(578.466797 0.203125)"/>
      <use xlink:href="#ArialMT-30" transform="translate(606.25 0.203125)"/>
      <use xlink:href="#ArialMT-2e" transform="translate(661.865234 0.203125)"/>
      <use xlink:href="#ArialMT-31" transform="translate(689.648438 0.203125)"/>
      <use xlink:href="#ArialMT-30" transform="translate(745.263672 0.203125)"/>
     </g>
    </g>
    <g id="line2d_23">
     <path d="M 389.59 472.503906 
L 400.59 472.503906 
L 411.59 472.503906 
" style="fill: none; stroke: #66a61e; stroke-opacity: 0.8; stroke-width: 2; stroke-linecap: round"/>
    </g>
    <g id="text_18">
     <!-- XGB: 0.66 $\pm$ 0.10 -->
     <g style="fill: #262626" transform="translate(420.39 476.353906)scale(0.11 -0.11)">
      <defs>
       <path id="ArialMT-58" d="M 28 0 
L 1800 2388 
L 238 4581 
L 959 4581 
L 1791 3406 
Q 2050 3041 2159 2844 
Q 2313 3094 2522 3366 
L 3444 4581 
L 4103 4581 
L 2494 2422 
L 4228 0 
L 3478 0 
L 2325 1634 
Q 2228 1775 2125 1941 
Q 1972 1691 1906 1597 
L 756 0 
L 28 0 
z
" transform="scale(0.015625)"/>
       <path id="ArialMT-47" d="M 2638 1797 
L 2638 2334 
L 4578 2338 
L 4578 638 
Q 4131 281 3656 101 
Q 3181 -78 2681 -78 
Q 2006 -78 1454 211 
Q 903 500 622 1047 
Q 341 1594 341 2269 
Q 341 2938 620 3517 
Q 900 4097 1425 4378 
Q 1950 4659 2634 4659 
Q 3131 4659 3532 4498 
Q 3934 4338 4162 4050 
Q 4391 3763 4509 3300 
L 3963 3150 
Q 3859 3500 3706 3700 
Q 3553 3900 3268 4020 
Q 2984 4141 2638 4141 
Q 2222 4141 1919 4014 
Q 1616 3888 1430 3681 
Q 1244 3475 1141 3228 
Q 966 2803 966 2306 
Q 966 1694 1177 1281 
Q 1388 869 1791 669 
Q 2194 469 2647 469 
Q 3041 469 3416 620 
Q 3791 772 3984 944 
L 3984 1797 
L 2638 1797 
z
" transform="scale(0.015625)"/>
      </defs>
      <use xlink:href="#ArialMT-58" transform="translate(0 0.203125)"/>
      <use xlink:href="#ArialMT-47" transform="translate(66.699219 0.203125)"/>
      <use xlink:href="#ArialMT-42" transform="translate(144.482422 0.203125)"/>
      <use xlink:href="#ArialMT-3a" transform="translate(211.181641 0.203125)"/>
      <use xlink:href="#ArialMT-20" transform="translate(238.964844 0.203125)"/>
      <use xlink:href="#ArialMT-30" transform="translate(266.748047 0.203125)"/>
      <use xlink:href="#ArialMT-2e" transform="translate(322.363281 0.203125)"/>
      <use xlink:href="#ArialMT-36" transform="translate(350.146484 0.203125)"/>
      <use xlink:href="#ArialMT-36" transform="translate(405.761719 0.203125)"/>
      <use xlink:href="#ArialMT-20" transform="translate(461.376953 0.203125)"/>
      <use xlink:href="#DejaVuSans-b1" transform="translate(489.160156 0.203125)"/>
      <use xlink:href="#ArialMT-20" transform="translate(572.949219 0.203125)"/>
      <use xlink:href="#ArialMT-30" transform="translate(600.732422 0.203125)"/>
      <use xlink:href="#ArialMT-2e" transform="translate(656.347656 0.203125)"/>
      <use xlink:href="#ArialMT-31" transform="translate(684.130859 0.203125)"/>
      <use xlink:href="#ArialMT-30" transform="translate(739.746094 0.203125)"/>
     </g>
    </g>
    <g id="line2d_24">
     <path d="M 389.59 488.06375 
L 400.59 488.06375 
L 411.59 488.06375 
" style="fill: none; stroke-dasharray: 7.4,3.2; stroke-dashoffset: 0; stroke: #1a1a1a; stroke-opacity: 0.8; stroke-width: 2"/>
    </g>
    <g id="text_19">
     <!-- Random -->
     <g style="fill: #262626" transform="translate(420.39 491.91375)scale(0.11 -0.11)">
      <defs>
       <path id="ArialMT-61" d="M 2588 409 
Q 2275 144 1986 34 
Q 1697 -75 1366 -75 
Q 819 -75 525 192 
Q 231 459 231 875 
Q 231 1119 342 1320 
Q 453 1522 633 1644 
Q 813 1766 1038 1828 
Q 1203 1872 1538 1913 
Q 2219 1994 2541 2106 
Q 2544 2222 2544 2253 
Q 2544 2597 2384 2738 
Q 2169 2928 1744 2928 
Q 1347 2928 1158 2789 
Q 969 2650 878 2297 
L 328 2372 
Q 403 2725 575 2942 
Q 747 3159 1072 3276 
Q 1397 3394 1825 3394 
Q 2250 3394 2515 3294 
Q 2781 3194 2906 3042 
Q 3031 2891 3081 2659 
Q 3109 2516 3109 2141 
L 3109 1391 
Q 3109 606 3145 398 
Q 3181 191 3288 0 
L 2700 0 
Q 2613 175 2588 409 
z
M 2541 1666 
Q 2234 1541 1622 1453 
Q 1275 1403 1131 1340 
Q 988 1278 909 1158 
Q 831 1038 831 891 
Q 831 666 1001 516 
Q 1172 366 1500 366 
Q 1825 366 2078 508 
Q 2331 650 2450 897 
Q 2541 1088 2541 1459 
L 2541 1666 
z
" transform="scale(0.015625)"/>
       <path id="ArialMT-6e" d="M 422 0 
L 422 3319 
L 928 3319 
L 928 2847 
Q 1294 3394 1984 3394 
Q 2284 3394 2536 3286 
Q 2788 3178 2913 3003 
Q 3038 2828 3088 2588 
Q 3119 2431 3119 2041 
L 3119 0 
L 2556 0 
L 2556 2019 
Q 2556 2363 2490 2533 
Q 2425 2703 2258 2804 
Q 2091 2906 1866 2906 
Q 1506 2906 1245 2678 
Q 984 2450 984 1813 
L 984 0 
L 422 0 
z
" transform="scale(0.015625)"/>
       <path id="ArialMT-6d" d="M 422 0 
L 422 3319 
L 925 3319 
L 925 2853 
Q 1081 3097 1340 3245 
Q 1600 3394 1931 3394 
Q 2300 3394 2536 3241 
Q 2772 3088 2869 2813 
Q 3263 3394 3894 3394 
Q 4388 3394 4653 3120 
Q 4919 2847 4919 2278 
L 4919 0 
L 4359 0 
L 4359 2091 
Q 4359 2428 4304 2576 
Q 4250 2725 4106 2815 
Q 3963 2906 3769 2906 
Q 3419 2906 3187 2673 
Q 2956 2441 2956 1928 
L 2956 0 
L 2394 0 
L 2394 2156 
Q 2394 2531 2256 2718 
Q 2119 2906 1806 2906 
Q 1569 2906 1367 2781 
Q 1166 2656 1075 2415 
Q 984 2175 984 1722 
L 984 0 
L 422 0 
z
" transform="scale(0.015625)"/>
      </defs>
      <use xlink:href="#ArialMT-52"/>
      <use xlink:href="#ArialMT-61" x="72.216797"/>
      <use xlink:href="#ArialMT-6e" x="127.832031"/>
      <use xlink:href="#ArialMT-64" x="183.447266"/>
      <use xlink:href="#ArialMT-6f" x="239.0625"/>
      <use xlink:href="#ArialMT-6d" x="294.677734"/>
     </g>
    </g>
   </g>
  </g>
 </g>
 <defs>
  <clipPath id="p4e67c234c9">
   <rect x="72" y="69.12" width="446.4" height="434.88"/>
  </clipPath>
 </defs>
</svg>
